HIERARCHY
ROOT Hips
{
  OFFSET 179.979 97.3047 303.174
  CHANNELS 6 Xposition Yposition Zposition Zrotation Xrotation Yrotation
  JOINT Spine
  {
    OFFSET 0.000859786 9.92346 -1.22733
    CHANNELS 3 Zrotation Xrotation Yrotation
    JOINT Spine1
    {
      OFFSET 0 11.732 0
      CHANNELS 3 Zrotation Xrotation Yrotation
      JOINT Spine2
      {
        OFFSET 0 13.4588 0
        CHANNELS 3 Zrotation Xrotation Yrotation
        JOINT Neck
        {
          OFFSET 2.54812e-05 15.0278 0.877907
          CHANNELS 3 Zrotation Xrotation Yrotation
          JOINT Head
          {
            OFFSET 0 10.3218 3.14243
            CHANNELS 3 Zrotation Xrotation Yrotation
            End Site
            {
              OFFSET 0 0 0
            }
          }
        }
        JOINT LeftShoulder
        {
          OFFSET 6.10582 9.10629 0.757062
          CHANNELS 3 Zrotation Xrotation Yrotation
          JOINT LeftArm
          {
            OFFSET 0 12.9223 0
            CHANNELS 3 Zrotation Xrotation Yrotation
            JOINT LeftForeArm
            {
              OFFSET 0 27.4047 0
              CHANNELS 3 Zrotation Xrotation Yrotation
              JOINT LeftHand
              {
                OFFSET -1.28204e-05 27.6145 0
                CHANNELS 3 Zrotation Xrotation Yrotation
                End Site
                {
                  OFFSET 0 0 0
                }
              }
            }
          }
        }
        JOINT RightShoulder
        {
          OFFSET -6.1057 9.10638 0.757076
          CHANNELS 3 Zrotation Xrotation Yrotation
          JOINT RightArm
          {
            OFFSET 0 12.9223 0
            CHANNELS 3 Zrotation Xrotation Yrotation
            JOINT RightForeArm
            {
              OFFSET 0 27.4047 0
              CHANNELS 3 Zrotation Xrotation Yrotation
              JOINT RightHand
              {
                OFFSET 1.28428e-05 27.6145 1.44975e-05
                CHANNELS 3 Zrotation Xrotation Yrotation
                End Site
                {
                  OFFSET 0 0 0
                }
              }
            }
          }
        }
      }
    }
  }
  JOINT LeftUpLeg
  {
    OFFSET 9.12387 -6.65719 -0.0554031
    CHANNELS 3 Zrotation Xrotation Yrotation
    JOINT LeftLeg
    {
      OFFSET 0 40.5994 0
      CHANNELS 3 Zrotation Xrotation Yrotation
      JOINT LeftFoot
      {
        OFFSET 0 42.099 0
        CHANNELS 3 Zrotation Xrotation Yrotation
        JOINT LeftToeBase
        {
          OFFSET 0 15.7216 0
          CHANNELS 3 Zrotation Xrotation Yrotation
          End Site
          {
            OFFSET 0 0 0
          }
        }
      }
    }
  }
  JOINT RightUpLeg
  {
    OFFSET -9.12503 -6.6556 -0.0553527
    CHANNELS 3 Zrotation Xrotation Yrotation
    JOINT RightLeg
    {
      OFFSET 0 40.5994 0
      CHANNELS 3 Zrotation Xrotation Yrotation
      JOINT RightFoot
      {
        OFFSET 0 42.099 0
        CHANNELS 3 Zrotation Xrotation Yrotation
        JOINT RightToeBase
        {
          OFFSET 0 15.7216 0
          CHANNELS 3 Zrotation Xrotation Yrotation
          End Site
          {
            OFFSET 0 0 0
          }
        }
      }
    }
  }
}
MOTION
Frames:	8
Frame Time:	0.0333333
135.962 96.611 242.66 -2.3976 0.52443 0.925112 0.837037 -6.45127 -0.0315885 1.6609 1.04327 -0.289536 1.6959 7.63767 -0.291176 0.426388 14.8153 -3.58251 -3.18701 -26.7551 -3.70194 -86.9053 -19.3099 89.8632 18.9008 4.86627 13.8981 18.0899 -15.3808 -0.731075 -15.8424 -12.2871 -10.8298 89.0572 -14.6519 -90.2628 -11.0765 10.8174 21.5406 -22.7989 -12.54 0.700478 4.04781 -17.0031 -4.32878 -171.02 22.248 -23.3199 0.286979 -34.3657 -10.0275 27.6954 72.3948 -26.0402 -0.96527 26.367 -3.60229 -171.622 10.0071 6.86363 -1.65023 -21.8278 11.5595 -54.7888 77.909 51.5834 0.963538 26.3682 3.55537 
135.961 96.6124 242.662 -2.39533 0.525921 0.933765 0.836405 -6.45199 -0.0316651 1.6598 1.04186 -0.288486 1.69468 7.63626 -0.29015 0.426483 14.8137 -3.58688 -3.18493 -26.7481 -3.70626 -86.9056 -19.3023 89.8634 18.8954 4.85796 13.8686 18.1134 -15.3943 -0.731753 -15.8233 -12.2986 -10.8097 89.0604 -14.6534 -90.2621 -11.0786 10.8098 21.5238 -22.7983 -12.5395 0.700476 4.04439 -17.0099 -4.32799 -171.029 22.246 -23.3151 0.293642 -34.3551 -10.0238 27.6951 72.3949 -26.0393 -0.96527 26.367 -3.60229 -171.623 10.0061 6.86471 -1.65055 -21.8233 11.5629 -54.7829 77.9056 51.5786 0.963538 26.3682 3.55537 
135.921 96.628 242.695 -2.36167 0.536387 1.20847 0.819774 -6.46341 -0.0336811 1.62908 1.01925 -0.268383 1.66163 7.61365 -0.269868 0.453785 14.7665 -3.74618 -3.14338 -26.5371 -3.85599 -86.91 -19.1622 89.8716 18.9717 4.56609 13.4011 18.5511 -15.9305 -0.756706 -15.6877 -12.4468 -10.754 89.0954 -14.6613 -90.2535 -11.0097 10.7546 21.3203 -22.9239 -12.5824 0.708609 3.88465 -17.0827 -4.49591 -171.207 22.1975 -23.0015 0.303402 -34.1532 -10.0281 27.6932 72.394 -26.0536 -0.96527 26.367 -3.60229 -171.611 9.93596 6.90712 -1.68254 -21.6845 11.6911 -54.8488 77.8191 51.6944 0.963538 26.3682 3.55537 
135.877 96.6342 242.719 -2.36443 0.565499 1.45773 0.813188 -6.46128 -0.0344796 1.61622 1.02357 -0.264332 1.64832 7.618 -0.26582 0.446683 14.53 -3.86473 -3.07511 -26.329 -3.97542 -86.9184 -19.1258 89.874 19.0755 4.22196 13.1417 18.9952 -16.4221 -0.779826 -15.7098 -12.7014 -10.7877 89.0888 -14.7205 -90.2482 -11.0519 10.7808 21.3969 -23.0206 -12.6274 0.71607 3.9856 -17.0761 -4.22447 -171.269 22.2517 -22.7274 0.274777 -34.1134 -10.0258 27.6087 72.375 -25.9741 -0.96527 26.367 -3.60229 -171.558 9.93817 6.98843 -1.74042 -21.6281 11.7715 -54.9368 77.762 51.8158 0.963538 26.3682 3.55537 
135.844 96.6239 242.738 -2.39561 0.574913 1.61149 0.818789 -6.45191 -0.0338007 1.62972 1.04234 -0.256174 1.66084 7.63675 -0.257555 0.475439 14.4387 -3.97111 -3.07777 -26.3682 -4.07783 -86.8916 -19.057 89.8791 19.0219 4.10941 12.8181 19.5925 -17.0887 -0.811438 -15.6353 -12.7524 -10.6888 89.1314 -14.7729 -90.2445 -11.2014 10.6546 21.5575 -23.0217 -12.6239 0.717656 4.04539 -17.0781 -4.37664 -171.223 22.3048 -22.5892 0.20136 -34.1726 -10.0365 27.6035 72.401 -25.9528 -0.96527 26.367 -3.60229 -171.496 9.94688 7.03472 -1.75484 -21.6249 11.8438 -55.0514 77.7108 51.9166 0.963538 26.3682 3.55537 
135.819 96.6011 242.76 -2.45938 0.575265 1.68453 0.831942 -6.44085 -0.0352606 1.65726 1.06437 -0.256286 1.68841 7.6588 -0.257667 0.608127 14.3731 -4.0556 -3.08163 -26.3935 -4.11316 -86.8893 -19.1193 89.875 19.0625 3.96922 12.6601 20.2861 -17.5388 -0.833439 -15.6684 -13.0487 -10.8432 89.1747 -14.7452 -90.2483 -11.3635 10.6131 21.6479 -23.1034 -12.6736 0.718407 4.12212 -17.1407 -4.27128 -171.119 22.313 -22.6739 0.194533 -34.2349 -9.95955 27.7636 72.5758 -26.0645 -0.96527 26.367 -3.60229 -171.426 9.95706 7.15871 -1.78405 -21.6657 11.8135 -55.1013 77.7585 52.0371 0.963538 26.3682 3.55537 
135.795 96.5792 242.786 -2.57943 0.577274 1.67393 0.862996 -6.43184 -0.0384582 1.71997 1.08208 -0.266467 1.75232 7.67651 -0.267942 0.709999 14.3806 -4.09075 -3.11201 -26.4459 -4.11056 -86.9138 -19.0503 89.8792 18.8172 4.00047 12.9102 21.0258 -18.2678 -0.868481 -15.321 -12.7517 -10.7899 89.2662 -14.6898 -90.2557 -11.6056 10.5935 21.8961 -23.337 -12.7047 0.721891 4.34824 -17.2289 -4.04459 -170.893 22.3047 -22.8803 0.129728 -34.3204 -9.92383 28.038 72.7682 -26.2511 -0.96527 26.367 -3.60229 -171.286 9.96668 7.23146 -1.7996 -21.6878 11.7581 -55.0685 77.7665 51.9164 0.963538 26.3682 3.55537 
135.784 96.567 242.814 -2.6429 0.579686 1.54864 0.884251 -6.4246 -0.0406622 1.76066 1.0964 -0.284155 1.79506 7.6908 -0.28577 0.929594 14.4373 -4.08787 -3.25332 -26.5007 -4.02013 -86.9785 -19.0043 89.8815 18.4283 4.14677 12.8839 22.0845 -18.8171 -0.895405 -14.891 -12.8454 -10.2156 89.4708 -14.6584 -90.2633 -12.1173 10.6994 22.2734 -23.6603 -12.7928 0.728353 4.32747 -17.6057 -4.07688 -170.684 22.2496 -23.2403 0.121163 -34.386 -9.79647 27.9684 72.9303 -26.192 -0.96527 26.367 -3.60229 -171.216 9.93283 7.27675 -1.81445 -21.6682 11.6459 -54.9531 77.8427 51.8114 0.963538 26.3682 3.55537 
